<svg width="297" height="58" viewBox="0 0 297 58" fill="none" xmlns="http://www.w3.org/2000/svg">
<path d="M22.2311 37.4613L22.2916 44.3458L0.817822 44.5344L0.757369 37.6499L5.94272 37.6044L5.70579 10.623L0.520444 10.6685L0.459991 3.78402L21.9338 3.59546C26.9336 3.55155 30.8011 4.68951 33.5365 7.00933C36.2913 9.32898 37.6861 12.4712 37.721 16.4358C37.7409 18.7014 37.2804 20.7661 36.3397 22.6299C35.3989 24.4741 34.1809 25.9009 32.6858 26.9101C31.21 27.8997 29.507 28.5885 27.5768 28.9766C25.6659 29.3449 23.2652 29.5418 20.3747 29.5672L16.4783 29.6014L16.5478 37.5112L22.2311 37.4613ZM16.4186 22.8048L18.0006 22.7909C21.6333 22.759 23.962 22.1526 24.9869 20.9717C26.031 19.771 26.5454 18.2919 26.53 16.5341C26.5169 15.0498 26.1446 13.7932 25.4129 12.7645C24.681 11.7162 23.8453 11.079 22.9057 10.8528C21.966 10.6072 20.4318 10.4937 18.303 10.5124L16.3109 10.5299L16.4186 22.8048ZM72.1835 37.3743L72.2408 43.9072L58.6183 44.0269L58.5988 41.8004C56.1729 43.5796 53.6026 44.4811 50.8879 44.5049C48.0755 44.5296 45.6369 43.7502 43.5721 42.1667C41.5269 40.583 40.4924 38.4436 40.4688 35.7484C40.4449 33.0337 41.4991 30.7489 43.6314 28.8942C45.7636 27.0395 48.5289 26.0972 51.9272 26.0673C53.8216 26.0507 56.0035 26.5101 58.4727 27.4455L58.4575 25.717C58.4449 24.2718 57.9462 23.0944 56.9616 22.1851C55.9769 21.2562 54.6642 20.799 53.0237 20.8134C50.9925 20.8312 49.2608 21.5886 47.8286 23.0856L40.5223 21.8314C42.5924 17.3404 47.1526 15.0639 54.2031 15.002C56.9374 14.978 59.2057 15.2706 61.008 15.8798C62.8101 16.4695 64.1549 17.2487 65.0423 18.2175C65.9298 19.1863 66.5544 20.2551 66.9163 21.4238C67.2975 22.5729 67.4996 24.4559 67.5225 27.073L67.6133 37.4144L72.1835 37.3743ZM58.5262 33.539C56.3268 32.191 54.5728 31.5228 53.2643 31.5343C52.2292 31.5434 51.2846 31.8544 50.4306 32.4674C49.5961 33.0803 49.1839 33.9628 49.194 35.1151C49.2031 36.1502 49.5527 37.0359 50.2428 37.772C50.9329 38.5082 51.815 38.8715 52.8892 38.8621C54.5688 38.8474 56.4546 37.8444 58.5466 35.8533L58.5262 33.539ZM94.5947 37.1775L94.6521 43.7104L74.7017 43.8856L74.6443 37.3527L79.8883 37.3066L79.7542 22.0435L74.8326 22.0868L74.7749 15.5245L87.9873 15.4085L88.0506 22.6152C88.5402 20.5406 89.6768 18.7434 91.4604 17.2238C93.2634 15.6844 95.3953 14.904 97.8561 14.8824C98.2663 14.8788 98.7546 14.8842 99.3212 14.8988L99.3963 23.4532C97.1112 23.4732 95.2483 23.7435 93.8075 24.264C92.3667 24.7845 91.1851 25.9082 90.2627 27.6351C89.3404 29.362 88.8895 31.3973 88.91 33.7409L88.9406 37.2271L94.5947 37.1775ZM103.63 21.8339L103.573 15.2716L107.176 15.24L107.137 10.787L116.132 4.2039L116.228 15.1605L121.443 15.1147L121.501 21.677L116.286 21.7228L116.394 33.9977C116.404 35.1109 116.547 35.8616 116.824 36.2498C117.12 36.6183 117.776 36.7981 118.791 36.7892C119.631 36.7819 120.577 36.5782 121.628 36.1784L121.683 42.4476C119.367 43.4251 117.096 43.9235 114.87 43.9431C109.909 43.9866 107.407 41.5476 107.364 36.6259L107.234 21.8022L103.63 21.8339ZM129.545 6.92802C129.533 5.56089 130.002 4.38486 130.95 3.39993C131.918 2.41483 133.085 1.91628 134.453 1.90427C135.839 1.8921 137.015 2.37007 137.981 3.33819C138.946 4.30631 139.435 5.47394 139.447 6.84107C139.459 8.20821 138.981 9.38433 138.013 10.3694C137.065 11.3348 135.907 11.8235 134.54 11.8355C133.192 11.8474 132.026 11.3693 131.041 10.4014C130.056 9.43341 129.557 8.27563 129.545 6.92802ZM125.69 21.6402L125.632 15.0779L138.991 14.9606L139.183 36.786L143.401 36.7489L143.459 43.2819L125.881 43.4362L125.824 36.9033L130.13 36.8654L129.996 21.6024L125.69 21.6402ZM150.347 6.92115C150.335 5.57355 150.813 4.4072 151.781 3.4221C152.749 2.437 153.907 1.93853 155.254 1.9267C156.621 1.91469 157.788 2.39275 158.753 3.36087C159.738 4.30929 160.237 5.46707 160.249 6.8342C160.261 8.20134 159.783 9.37746 158.815 10.3626C157.866 11.328 156.708 11.8167 155.341 11.8287C153.935 11.841 152.749 11.3631 151.784 10.395C150.837 9.40718 150.358 8.24923 150.347 6.92115ZM146.783 21.455L146.725 14.8927L160.172 14.7746L160.413 42.2248C160.444 45.7793 160.145 48.4187 159.516 50.1431C158.886 51.8674 157.638 53.2261 155.772 54.2191C153.906 55.2316 151.176 55.7536 147.582 55.7852C146.254 55.7969 145.17 55.7576 144.329 55.6673L144.265 48.3726C144.871 48.4454 145.438 48.4795 145.965 48.4749C147.704 48.4596 148.932 48.2633 149.652 47.8859C150.371 47.5084 150.836 47.0161 151.045 46.4087C151.274 45.8208 151.382 44.7553 151.369 43.2124L151.177 21.4164L146.783 21.455ZM168.097 43.0655L168.039 36.5326L172.492 36.4935L172.249 8.80899L167.796 8.84809L167.739 2.31514L181.244 2.19655L181.544 36.414L185.617 36.3782L185.674 42.9112L168.097 43.0655ZM221.24 36.0654L221.298 42.5984L207.675 42.718L207.656 40.4915C205.23 42.2707 202.659 43.1722 199.945 43.196C197.132 43.2207 194.694 42.4413 192.629 40.8578C190.584 39.2742 189.549 37.1347 189.526 34.4395C189.502 31.7248 190.556 29.4401 192.688 27.5853C194.82 25.7306 197.586 24.7883 200.984 24.7585C202.878 24.7418 205.06 25.2012 207.529 26.1366L207.514 24.4081C207.502 22.9629 207.003 21.7856 206.018 20.8762C205.034 19.9473 203.721 19.4901 202.08 19.5045C200.049 19.5223 198.318 20.2797 196.885 21.7768L189.579 20.5225C191.649 16.0315 196.209 13.755 203.26 13.6931C205.994 13.6691 208.262 13.9617 210.065 14.5709C211.867 15.1606 213.212 15.9398 214.099 16.9086C214.987 17.8774 215.611 18.9462 215.973 20.1149C216.354 21.264 216.556 23.1471 216.579 25.7641L216.67 36.1055L221.24 36.0654ZM207.583 32.2301C205.384 30.8822 203.63 30.214 202.321 30.2254C201.286 30.2345 200.341 30.5456 199.487 31.1586C198.653 31.7714 198.241 32.6539 198.251 33.8062C198.26 34.8414 198.609 35.727 199.3 36.4632C199.99 37.1993 200.872 37.5627 201.946 37.5532C203.626 37.5385 205.511 36.5356 207.603 34.5445L207.583 32.2301ZM224.094 20.7761L224.037 14.2138L237.425 14.0963L237.448 16.7329C240.164 14.6582 242.929 13.6085 245.741 13.5838C251.463 13.5335 254.357 17.1606 254.421 24.465L254.52 35.7732L258.797 35.7356L258.855 42.2686L245.525 42.3856L245.374 25.2183C245.361 23.6754 245.137 22.6226 244.702 22.06C244.287 21.4972 243.601 21.2201 242.644 21.2285C240.964 21.2432 239.251 21.8735 237.504 23.1194L237.617 35.9216L241.982 35.8833L242.039 42.4162L224.286 42.5721L224.228 36.0392L228.564 36.0011L228.43 20.738L224.094 20.7761ZM296.032 35.4087L296.09 41.9416L282.379 42.062L282.35 38.693C279.852 41.2345 277.129 42.5183 274.18 42.5442C270.645 42.5752 267.703 41.1654 265.353 38.3149C263.004 35.4643 261.812 31.9981 261.776 27.9162C261.739 23.7757 262.9 20.2791 265.258 17.4262C267.616 14.5539 270.513 13.1026 273.951 13.0724C277.251 13.0434 279.987 14.2987 282.158 16.8384L282.079 7.84457L277.655 7.88341L277.598 1.35046L291.074 1.23213L291.374 35.4496L296.032 35.4087ZM282.342 27.8235C282.318 25.1088 281.715 23.1804 280.533 22.0384C279.371 20.8962 278.048 20.3316 276.563 20.3447C274.786 20.3603 273.415 21.0657 272.451 22.4609C271.506 23.8365 271.043 25.6472 271.063 27.8932C271.082 30.0221 271.576 31.8147 272.546 33.2711C273.515 34.7079 274.908 35.4184 276.725 35.4024C278.229 35.3892 279.542 34.7917 280.664 33.6099C281.806 32.4085 282.365 30.4796 282.342 27.8235Z" fill="white"/>
</svg>
