<svg width="292" height="54" viewBox="0 0 292 54" fill="none" xmlns="http://www.w3.org/2000/svg">
<g filter="url(#filter0_d_3_3)">
<path d="M4.58281 45V3H24.4428C29.0828 3 33.1628 3.86 36.6828 5.58C40.2028 7.3 42.9428 9.72 44.9028 12.84C46.9028 15.96 47.9028 19.68 47.9028 24C47.9028 28.28 46.9028 32 44.9028 35.16C42.9428 38.28 40.2028 40.7 36.6828 42.42C33.1628 44.14 29.0828 45 24.4428 45H4.58281ZM16.4628 35.52H23.9628C26.3628 35.52 28.4428 35.08 30.2028 34.2C32.0028 33.28 33.4028 31.96 34.4028 30.24C35.4028 28.48 35.9028 26.4 35.9028 24C35.9028 21.56 35.4028 19.48 34.4028 17.76C33.4028 16.04 32.0028 14.74 30.2028 13.86C28.4428 12.94 26.3628 12.48 23.9628 12.48H16.4628V35.52ZM72.1531 45.54C68.3131 45.54 64.9531 44.82 62.0731 43.38C59.2331 41.9 57.0131 39.9 55.4131 37.38C53.8531 34.82 53.0731 31.92 53.0731 28.68C53.0731 25.44 53.8331 22.56 55.3531 20.04C56.9131 17.48 59.0531 15.5 61.7731 14.1C64.4931 12.66 67.5531 11.94 70.9531 11.94C74.1531 11.94 77.0731 12.6 79.7131 13.92C82.3531 15.2 84.4531 17.1 86.0131 19.62C87.5731 22.14 88.3531 25.2 88.3531 28.8C88.3531 29.2 88.3331 29.66 88.2931 30.18C88.2531 30.7 88.2131 31.18 88.1731 31.62H62.4331V25.62H82.1131L77.7931 27.3C77.8331 25.82 77.5531 24.54 76.9531 23.46C76.3931 22.38 75.5931 21.54 74.5531 20.94C73.5531 20.34 72.3731 20.04 71.0131 20.04C69.6531 20.04 68.4531 20.34 67.4131 20.94C66.4131 21.54 65.6331 22.4 65.0731 23.52C64.5131 24.6 64.2331 25.88 64.2331 27.36V29.1C64.2331 30.7 64.5531 32.08 65.1931 33.24C65.8731 34.4 66.8331 35.3 68.0731 35.94C69.3131 36.54 70.7931 36.84 72.5131 36.84C74.1131 36.84 75.4731 36.62 76.5931 36.18C77.7531 35.7 78.8931 34.98 80.0131 34.02L86.0131 40.26C84.4531 41.98 82.5331 43.3 80.2531 44.22C77.9731 45.1 75.2731 45.54 72.1531 45.54ZM115.569 45.54C112.649 45.54 110.209 44.94 108.249 43.74C106.329 42.54 104.889 40.7 103.929 38.22C102.969 35.74 102.489 32.56 102.489 28.68C102.489 24.88 102.989 21.74 103.989 19.26C105.029 16.78 106.529 14.94 108.489 13.74C110.449 12.54 112.809 11.94 115.569 11.94C118.529 11.94 121.209 12.62 123.609 13.98C126.049 15.34 127.969 17.28 129.369 19.8C130.809 22.28 131.529 25.24 131.529 28.68C131.529 32.16 130.809 35.16 129.369 37.68C127.969 40.16 126.049 42.1 123.609 43.5C121.209 44.86 118.529 45.54 115.569 45.54ZM95.1092 45V0.479997H106.509V17.94L105.909 28.68L105.969 39.42V45H95.1092ZM113.169 36.48C114.449 36.48 115.589 36.18 116.589 35.58C117.629 34.98 118.449 34.1 119.049 32.94C119.689 31.74 120.009 30.32 120.009 28.68C120.009 27.04 119.689 25.66 119.049 24.54C118.449 23.38 117.629 22.5 116.589 21.9C115.589 21.3 114.449 21 113.169 21C111.889 21 110.729 21.3 109.689 21.9C108.689 22.5 107.869 23.38 107.229 24.54C106.629 25.66 106.329 27.04 106.329 28.68C106.329 30.32 106.629 31.74 107.229 32.94C107.869 34.1 108.689 34.98 109.689 35.58C110.729 36.18 111.889 36.48 113.169 36.48ZM157.485 45V38.94L156.705 37.44V26.28C156.705 24.48 156.145 23.1 155.025 22.14C153.945 21.14 152.205 20.64 149.805 20.64C148.245 20.64 146.665 20.9 145.065 21.42C143.465 21.9 142.105 22.58 140.985 23.46L137.145 15.72C138.985 14.52 141.185 13.6 143.745 12.96C146.345 12.28 148.925 11.94 151.485 11.94C156.765 11.94 160.845 13.16 163.725 15.6C166.645 18 168.105 21.78 168.105 26.94V45H157.485ZM147.885 45.54C145.285 45.54 143.085 45.1 141.285 44.22C139.485 43.34 138.105 42.14 137.145 40.62C136.225 39.1 135.765 37.4 135.765 35.52C135.765 33.52 136.265 31.8 137.265 30.36C138.305 28.88 139.885 27.76 142.005 27C144.125 26.2 146.865 25.8 150.225 25.8H157.905V31.74H151.785C149.945 31.74 148.645 32.04 147.885 32.64C147.165 33.24 146.805 34.04 146.805 35.04C146.805 36.04 147.185 36.84 147.945 37.44C148.705 38.04 149.745 38.34 151.065 38.34C152.305 38.34 153.425 38.04 154.425 37.44C155.465 36.8 156.225 35.84 156.705 34.56L158.265 38.76C157.665 41 156.485 42.7 154.725 43.86C153.005 44.98 150.725 45.54 147.885 45.54ZM191.321 45.54C187.161 45.54 183.921 44.52 181.601 42.48C179.281 40.4 178.121 37.28 178.121 33.12V5.22H189.521V33C189.521 34.16 189.841 35.08 190.481 35.76C191.121 36.4 191.941 36.72 192.941 36.72C194.301 36.72 195.461 36.38 196.421 35.7L199.241 43.68C198.281 44.32 197.101 44.78 195.701 45.06C194.301 45.38 192.841 45.54 191.321 45.54ZM173.381 22.2V13.68H196.961V22.2H173.381Z" fill="#3A48CB"/>
<path d="M219.657 45.54C215.497 45.54 212.257 44.52 209.937 42.48C207.617 40.4 206.457 37.28 206.457 33.12V5.22H217.857V33C217.857 34.16 218.177 35.08 218.817 35.76C219.457 36.4 220.277 36.72 221.277 36.72C222.637 36.72 223.797 36.38 224.757 35.7L227.577 43.68C226.617 44.32 225.437 44.78 224.037 45.06C222.637 45.38 221.177 45.54 219.657 45.54ZM201.717 22.2V13.68H225.297V22.2H201.717ZM233.473 45V0.479997H244.873V45H233.473ZM270.821 45.54C266.981 45.54 263.621 44.82 260.741 43.38C257.901 41.9 255.681 39.9 254.081 37.38C252.521 34.82 251.741 31.92 251.741 28.68C251.741 25.44 252.501 22.56 254.021 20.04C255.581 17.48 257.721 15.5 260.441 14.1C263.161 12.66 266.221 11.94 269.621 11.94C272.821 11.94 275.741 12.6 278.381 13.92C281.021 15.2 283.121 17.1 284.681 19.62C286.241 22.14 287.021 25.2 287.021 28.8C287.021 29.2 287.001 29.66 286.961 30.18C286.921 30.7 286.881 31.18 286.841 31.62H261.101V25.62H280.781L276.461 27.3C276.501 25.82 276.221 24.54 275.621 23.46C275.061 22.38 274.261 21.54 273.221 20.94C272.221 20.34 271.041 20.04 269.681 20.04C268.321 20.04 267.121 20.34 266.081 20.94C265.081 21.54 264.301 22.4 263.741 23.52C263.181 24.6 262.901 25.88 262.901 27.36V29.1C262.901 30.7 263.221 32.08 263.861 33.24C264.541 34.4 265.501 35.3 266.741 35.94C267.981 36.54 269.461 36.84 271.181 36.84C272.781 36.84 274.141 36.62 275.261 36.18C276.421 35.7 277.561 34.98 278.681 34.02L284.681 40.26C283.121 41.98 281.201 43.3 278.921 44.22C276.641 45.1 273.941 45.54 270.821 45.54Z" fill="#E37B31"/>
</g>
<defs>
<filter id="filter0_d_3_3" x="0.582809" y="0.479996" width="290.438" height="53.06" filterUnits="userSpaceOnUse" color-interpolation-filters="sRGB">
<feFlood flood-opacity="0" result="BackgroundImageFix"/>
<feColorMatrix in="SourceAlpha" type="matrix" values="0 0 0 0 0 0 0 0 0 0 0 0 0 0 0 0 0 0 127 0" result="hardAlpha"/>
<feOffset dy="4"/>
<feGaussianBlur stdDeviation="2"/>
<feComposite in2="hardAlpha" operator="out"/>
<feColorMatrix type="matrix" values="0 0 0 0 0 0 0 0 0 0 0 0 0 0 0 0 0 0 0.25 0"/>
<feBlend mode="normal" in2="BackgroundImageFix" result="effect1_dropShadow_3_3"/>
<feBlend mode="normal" in="SourceGraphic" in2="effect1_dropShadow_3_3" result="shape"/>
</filter>
</defs>
</svg>
